<svg width="45" height="34" viewBox="0 0 45 34" fill="none" xmlns="http://www.w3.org/2000/svg">
<g clip-path="url(#clip0_47_87)">
<path d="M10.2273 33.7588V16.3723L4.83521 11.4393L0 8.7019V30.6906C0 32.3883 1.37549 33.7588 3.06826 33.7588H10.2273Z" fill="#4285F4"/>
<path d="M34.7727 33.7588H41.9317C43.6296 33.7588 45 32.3831 45 30.6905V8.70203L39.5234 11.8374L34.7727 16.3722V33.7588Z" fill="#34A853"/>
<path d="M10.2273 16.3723L9.49359 9.57888L10.2273 3.0769L22.5 12.2815L34.7727 3.0769L35.5934 9.22784L34.7727 16.3723L22.5 25.5769L10.2273 16.3723Z" fill="#EA4335"/>
<path d="M34.7727 3.07688V16.3723L45 8.70188V4.61093C45 0.816687 40.6688 -1.3463 37.6365 0.929186L34.7727 3.07688Z" fill="#FBBC04"/>
<path d="M0 8.7019L4.70373 12.2298L10.2273 16.3723V3.0769L7.36348 0.929206C4.32598 -1.34646 0 0.816706 0 4.61077V8.7019Z" fill="#C5221F"/>
</g>
<defs>
<clipPath id="clip0_47_87">
<rect width="45" height="33.9258" fill="white"/>
</clipPath>
</defs>
</svg>
