<svg width="45" height="45" viewBox="0 0 45 45" fill="none" xmlns="http://www.w3.org/2000/svg">
<g clip-path="url(#clip0_47_83)">
<path d="M0.952844 22.2307C0.951798 26.0115 1.9397 29.7033 3.81819 32.9572L0.773193 44.075L12.1509 41.0918C15.2978 42.8049 18.8237 43.7026 22.4067 43.7028H22.4161C34.2443 43.7028 43.8727 34.0779 43.8778 22.2476C43.88 16.515 41.6496 11.1244 37.5971 7.06882C33.5454 3.01358 28.1567 0.779106 22.4152 0.776489C10.5856 0.776489 0.957903 10.4009 0.953019 22.2307" fill="url(#paint0_linear_47_83)"/>
<path d="M0.186628 22.2237C0.185407 26.1406 1.20872 29.9644 3.15419 33.3349L0 44.8512L11.7856 41.761C15.033 43.5316 18.6891 44.4651 22.4095 44.4665H22.4191C34.6716 44.4665 44.6459 34.4953 44.6512 22.2415C44.6533 16.3029 42.3426 10.7185 38.1453 6.51767C33.9476 2.31733 28.3662 0.00244186 22.4191 0C10.1644 0 0.191512 9.96977 0.186628 22.2237ZM7.20541 32.7544L6.76535 32.0559C4.91546 29.1145 3.93907 25.7154 3.94046 22.2251C3.9443 12.0399 12.2334 3.75349 22.426 3.75349C27.3621 3.75558 32.0009 5.67977 35.49 9.17093C38.9789 12.6624 40.8987 17.3037 40.8975 22.2401C40.893 32.4253 32.6037 40.7128 22.4191 40.7128H22.4117C19.0955 40.711 15.8431 39.8205 13.0067 38.1375L12.3317 37.7372L5.33791 39.5709L7.20541 32.7544Z" fill="url(#paint1_linear_47_83)"/>
<path d="M16.8624 12.9328C16.4463 12.0078 16.0083 11.9892 15.6125 11.9729C15.2885 11.959 14.918 11.96 14.5479 11.96C14.1774 11.96 13.5755 12.0994 13.0667 12.6549C12.5574 13.211 11.1223 14.5547 11.1223 17.2877C11.1223 20.0206 13.113 22.662 13.3905 23.033C13.6683 23.4033 17.2334 29.1912 22.8797 31.4178C27.5723 33.2682 28.5272 32.9002 29.5456 32.8074C30.5642 32.715 32.8324 31.4641 33.2951 30.1669C33.7582 28.8699 33.7582 27.7582 33.6193 27.5259C33.4805 27.2944 33.11 27.1554 32.5545 26.8777C31.999 26.6 29.2678 25.256 28.7586 25.0706C28.2493 24.8853 27.8791 24.7929 27.5086 25.3491C27.1381 25.9045 26.0743 27.1554 25.7501 27.5259C25.4262 27.8972 25.102 27.9434 24.5466 27.6656C23.9907 27.3868 22.2017 26.801 20.0792 24.9087C18.4278 23.4363 17.313 21.6179 16.9889 21.0617C16.6648 20.5064 16.9542 20.2053 17.2327 19.9285C17.4823 19.6796 17.7884 19.2799 18.0664 18.9556C18.3434 18.6312 18.4359 18.3997 18.6211 18.0293C18.8065 17.6585 18.7137 17.3341 18.575 17.0562C18.4359 16.7784 17.3564 14.0311 16.8624 12.9328Z" fill="white"/>
</g>
<defs>
<linearGradient id="paint0_linear_47_83" x1="2156" y1="4330.63" x2="2156" y2="0.776489" gradientUnits="userSpaceOnUse">
<stop stop-color="#1FAF38"/>
<stop offset="1" stop-color="#60D669"/>
</linearGradient>
<linearGradient id="paint1_linear_47_83" x1="2232.56" y1="4485.12" x2="2232.56" y2="0" gradientUnits="userSpaceOnUse">
<stop stop-color="#F9F9F9"/>
<stop offset="1" stop-color="white"/>
</linearGradient>
<clipPath id="clip0_47_83">
<rect width="44.6512" height="45" fill="white"/>
</clipPath>
</defs>
</svg>
